<svg width="578" height="729" version="1.1" xmlns="http://www.w3.org/2000/svg" desc="Created with imagetracer.js version 1.2.6" ><path fill="rgb(0,0,0)" stroke="rgb(0,0,0)" stroke-width="1" opacity="0" d="M 0 0 L 578 0 L 578 729 L 0 729 L 0 0 Z M 234 21 L 234 152 L 220 152 L 219 153 L 209 153 L 208 154 L 196 155 L 160 165 Q 123 179 96 203 Q 60 233 39 279 L 31 300 L 26 318 L 23 334 L 23 341 L 22 342 L 22 353 L 21 354 L 21 377 L 22 378 L 23 397 L 28 421 L 33 437 Q 49 481 79 512 Q 106 540 143 558 L 178 571 L 195 575 L 216 577 L 217 578 L 234 578 L 234 579 L 234 709 L 260 709 L 261 708 L 271 708 L 272 707 L 293 705 L 321 699 L 361 686 Q 423 660 469 618 Q 501 588 525 551 Q 546 518 559 479 L 436 436 L 417 475 L 396 504 Q 367 538 325 558 Q 304 567 281 573 L 265 576 L 258 576 L 257 577 L 245 577 L 244 578 L 236 578 L 235 578 L 235 152 L 239 153 L 255 153 L 256 154 L 270 155 Q 293 159 313 167 Q 348 181 375 205 Q 415 239 434 294 L 441 293 L 559 251 Q 534 179 485 129 Q 440 81 377 51 L 344 38 L 312 29 L 278 23 L 270 23 L 269 22 L 234 21 Z " /><path fill="rgb(0,0,0)" stroke="rgb(0,0,0)" stroke-width="1" opacity="0.6862745098039216" d="M 234.5 21 L 235 708.5 L 234 708.5 L 234.5 21 Z " /><path fill="rgb(0,0,0)" stroke="rgb(0,0,0)" stroke-width="1" opacity="0.6862745098039216" d="M 248.5 21 L 257 21.5 L 248.5 22 L 248.5 21 Z " /><path fill="rgb(0,0,0)" stroke="rgb(0,0,0)" stroke-width="1" opacity="0.6862745098039216" d="M 264.5 22 L 269 22.5 L 264.5 23 L 264.5 22 Z " /><path fill="rgb(0,0,0)" stroke="rgb(0,0,0)" stroke-width="1" opacity="0.6862745098039216" d="M 274.5 23 L 278 23.5 L 274.5 24 L 274.5 23 Z " /><path fill="rgb(0,0,0)" stroke="rgb(0,0,0)" stroke-width="1" opacity="0.6862745098039216" d="M 282.5 24 L 285 24.5 L 282.5 25 L 282.5 24 Z " /><path fill="rgb(0,0,0)" stroke="rgb(0,0,0)" stroke-width="1" opacity="0.6862745098039216" d="M 288.5 25 L 292 25.5 L 288.5 26 L 288.5 25 Z " /><path fill="rgb(0,0,0)" stroke="rgb(0,0,0)" stroke-width="1" opacity="0.6862745098039216" d="M 294.5 26 L 297 26.5 L 294.5 27 L 294.5 26 Z " /><path fill="rgb(0,0,0)" stroke="rgb(0,0,0)" stroke-width="1" opacity="0.6862745098039216" d="M 309.5 29 L 312 29.5 L 309.5 30 L 309.5 29 Z " /><path fill="rgb(0,0,0)" stroke="rgb(0,0,0)" stroke-width="1" opacity="0.6862745098039216" d="M 423.5 77 L 424.5 79 L 423.5 77 Z " /><path fill="rgb(0,0,0)" stroke="rgb(0,0,0)" stroke-width="1" opacity="0.6862745098039216" d="M 426.5 79 L 427.5 81 L 426.5 79 Z " /><path fill="rgb(0,0,0)" stroke="rgb(0,0,0)" stroke-width="1" opacity="0.6862745098039216" d="M 433.5 84 L 434.5 86 L 433.5 84 Z " /><path fill="rgb(0,0,0)" stroke="rgb(0,0,0)" stroke-width="1" opacity="0.6862745098039216" d="M 436.5 86 L 437.5 88 L 436.5 86 Z " /><path fill="rgb(0,0,0)" stroke="rgb(0,0,0)" stroke-width="1" opacity="0.6862745098039216" d="M 440.5 89 L 441.5 91 L 440.5 89 Z " /><path fill="rgb(0,0,0)" stroke="rgb(0,0,0)" stroke-width="1" opacity="0.6862745098039216" d="M 444.5 92 L 446.5 95 L 444.5 92 Z " /><path fill="rgb(0,0,0)" stroke="rgb(0,0,0)" stroke-width="1" opacity="0.6862745098039216" d="M 449.5 96 L 451.5 99 L 449.5 96 Z " /><path fill="rgb(0,0,0)" stroke="rgb(0,0,0)" stroke-width="1" opacity="0.6862745098039216" d="M 454.5 100 L 457.5 104 L 454.5 100 Z " /><path fill="rgb(0,0,0)" stroke="rgb(0,0,0)" stroke-width="1" opacity="0.6862745098039216" d="M 460.5 105 L 465.5 111 L 460.5 105 Z " /><path fill="rgb(0,0,0)" stroke="rgb(0,0,0)" stroke-width="1" opacity="0.6862745098039216" d="M 471.5 115 L 484.5 129 L 471.5 115 Z " /><path fill="rgb(0,0,0)" stroke="rgb(0,0,0)" stroke-width="1" opacity="0.6862745098039216" d="M 488.5 133 L 494.5 140 L 488.5 133 Z " /><path fill="rgb(0,0,0)" stroke="rgb(0,0,0)" stroke-width="1" opacity="0.6862745098039216" d="M 496.5 142 L 499.5 146 L 496.5 142 Z " /><path fill="rgb(0,0,0)" stroke="rgb(0,0,0)" stroke-width="1" opacity="0.6862745098039216" d="M 501.5 148 L 503.5 151 L 501.5 148 Z " /><path fill="rgb(0,0,0)" stroke="rgb(0,0,0)" stroke-width="1" opacity="0.6862745098039216" d="M 219.5 152 L 231 152.5 L 219.5 153 L 219.5 152 Z " /><path fill="rgb(0,0,0)" stroke="rgb(0,0,0)" stroke-width="1" opacity="0.6862745098039216" d="M 238.5 152 L 249 152.5 L 238.5 153 L 238.5 152 Z " /><path fill="rgb(0,0,0)" stroke="rgb(0,0,0)" stroke-width="1" opacity="0.6862745098039216" d="M 208.5 153 L 213 153.5 L 208.5 154 L 208.5 153 Z " /><path fill="rgb(0,0,0)" stroke="rgb(0,0,0)" stroke-width="1" opacity="0.6862745098039216" d="M 255.5 153 L 260 153.5 L 255.5 154 L 255.5 153 Z " /><path fill="rgb(0,0,0)" stroke="rgb(0,0,0)" stroke-width="1" opacity="0.6862745098039216" d="M 505.5 153 L 507.5 156 L 505.5 153 Z " /><path fill="rgb(0,0,0)" stroke="rgb(0,0,0)" stroke-width="1" opacity="0.6862745098039216" d="M 201.5 154 L 205 154.5 L 201.5 155 L 201.5 154 Z " /><path fill="rgb(0,0,0)" stroke="rgb(0,0,0)" stroke-width="1" opacity="0.6862745098039216" d="M 263.5 154 L 267 154.5 L 263.5 155 L 263.5 154 Z " /><path fill="rgb(0,0,0)" stroke="rgb(0,0,0)" stroke-width="1" opacity="0.6862745098039216" d="M 195.5 155 L 198 155.5 L 195.5 156 L 195.5 155 Z " /><path fill="rgb(0,0,0)" stroke="rgb(0,0,0)" stroke-width="1" opacity="0.6862745098039216" d="M 270.5 155 L 273 155.5 L 270.5 156 L 270.5 155 Z " /><path fill="rgb(0,0,0)" stroke="rgb(0,0,0)" stroke-width="1" opacity="0.6862745098039216" d="M 190.5 156 L 193 156.5 L 190.5 157 L 190.5 156 Z " /><path fill="rgb(0,0,0)" stroke="rgb(0,0,0)" stroke-width="1" opacity="0.6862745098039216" d="M 275.5 156 L 278 156.5 L 275.5 157 L 275.5 156 Z " /><path fill="rgb(0,0,0)" stroke="rgb(0,0,0)" stroke-width="1" opacity="0.6862745098039216" d="M 509.5 158 L 510.5 160 L 509.5 158 Z " /><path fill="rgb(0,0,0)" stroke="rgb(0,0,0)" stroke-width="1" opacity="0.6862745098039216" d="M 512.5 162 L 513.5 164 L 512.5 162 Z " /><path fill="rgb(0,0,0)" stroke="rgb(0,0,0)" stroke-width="1" opacity="0.6862745098039216" d="M 514.5 165 L 515.5 167 L 514.5 165 Z " /><path fill="rgb(0,0,0)" stroke="rgb(0,0,0)" stroke-width="1" opacity="0.6862745098039216" d="M 124.5 182 L 123.5 184 L 124.5 182 Z " /><path fill="rgb(0,0,0)" stroke="rgb(0,0,0)" stroke-width="1" opacity="0.6862745098039216" d="M 345.5 183 L 346.5 185 L 345.5 183 Z " /><path fill="rgb(0,0,0)" stroke="rgb(0,0,0)" stroke-width="1" opacity="0.6862745098039216" d="M 526.5 183 L 527.5 185 L 526.5 183 Z " /><path fill="rgb(0,0,0)" stroke="rgb(0,0,0)" stroke-width="1" opacity="0.6862745098039216" d="M 529.5 188 L 530.5 190 L 529.5 188 Z " /><path fill="rgb(0,0,0)" stroke="rgb(0,0,0)" stroke-width="1" opacity="0.6862745098039216" d="M 354.5 189 L 355.5 191 L 354.5 189 Z " /><path fill="rgb(0,0,0)" stroke="rgb(0,0,0)" stroke-width="1" opacity="0.6862745098039216" d="M 357.5 191 L 358.5 193 L 357.5 191 Z " /><path fill="rgb(0,0,0)" stroke="rgb(0,0,0)" stroke-width="1" opacity="0.6862745098039216" d="M 109.5 192 L 108.5 194 L 109.5 192 Z " /><path fill="rgb(0,0,0)" stroke="rgb(0,0,0)" stroke-width="1" opacity="0.6862745098039216" d="M 532.5 193 L 533.5 195 L 532.5 193 Z " /><path fill="rgb(0,0,0)" stroke="rgb(0,0,0)" stroke-width="1" opacity="0.6862745098039216" d="M 361.5 194 L 362.5 196 L 361.5 194 Z " /><path fill="rgb(0,0,0)" stroke="rgb(0,0,0)" stroke-width="1" opacity="0.6862745098039216" d="M 105.5 195 L 104.5 197 L 105.5 195 Z " /><path fill="rgb(0,0,0)" stroke="rgb(0,0,0)" stroke-width="1" opacity="0.6862745098039216" d="M 365.5 197 L 367.5 200 L 365.5 197 Z " /><path fill="rgb(0,0,0)" stroke="rgb(0,0,0)" stroke-width="1" opacity="0.6862745098039216" d="M 101.5 198 L 98.5 202 L 101.5 198 Z " /><path fill="rgb(0,0,0)" stroke="rgb(0,0,0)" stroke-width="1" opacity="0.6862745098039216" d="M 370.5 201 L 373.5 205 L 370.5 201 Z " /><path fill="rgb(0,0,0)" stroke="rgb(0,0,0)" stroke-width="1" opacity="0.6862745098039216" d="M 95.5 203 L 90.5 209 L 95.5 203 Z " /><path fill="rgb(0,0,0)" stroke="rgb(0,0,0)" stroke-width="1" opacity="0.6862745098039216" d="M 377.5 207 L 392.5 223 L 377.5 207 Z " /><path fill="rgb(0,0,0)" stroke="rgb(0,0,0)" stroke-width="1" opacity="0.6862745098039216" d="M 77.5 221 L 72.5 227 L 77.5 221 Z " /><path fill="rgb(0,0,0)" stroke="rgb(0,0,0)" stroke-width="1" opacity="0.6862745098039216" d="M 395.5 226 L 398.5 230 L 395.5 226 Z " /><path fill="rgb(0,0,0)" stroke="rgb(0,0,0)" stroke-width="1" opacity="0.6862745098039216" d="M 70.5 229 L 67.5 233 L 70.5 229 Z " /><path fill="rgb(0,0,0)" stroke="rgb(0,0,0)" stroke-width="1" opacity="0.6862745098039216" d="M 400.5 232 L 402.5 235 L 400.5 232 Z " /><path fill="rgb(0,0,0)" stroke="rgb(0,0,0)" stroke-width="1" opacity="0.6862745098039216" d="M 66.5 234 L 64.5 237 L 66.5 234 Z " /><path fill="rgb(0,0,0)" stroke="rgb(0,0,0)" stroke-width="1" opacity="0.6862745098039216" d="M 404.5 237 L 405.5 239 L 404.5 237 Z " /><path fill="rgb(0,0,0)" stroke="rgb(0,0,0)" stroke-width="1" opacity="0.6862745098039216" d="M 62.5 239 L 61.5 241 L 62.5 239 Z " /><path fill="rgb(0,0,0)" stroke="rgb(0,0,0)" stroke-width="1" opacity="0.6862745098039216" d="M 407.5 241 L 408.5 243 L 407.5 241 Z " /><path fill="rgb(0,0,0)" stroke="rgb(0,0,0)" stroke-width="1" opacity="0.6862745098039216" d="M 60.5 242 L 59.5 244 L 60.5 242 Z " /><path fill="rgb(0,0,0)" stroke="rgb(0,0,0)" stroke-width="1" opacity="0.6862745098039216" d="M 409.5 244 L 410.5 246 L 409.5 244 Z " /><path fill="rgb(0,0,0)" stroke="rgb(0,0,0)" stroke-width="1" opacity="0.6862745098039216" d="M 411.5 247 L 412.5 249 L 411.5 247 Z " /><path fill="rgb(0,0,0)" stroke="rgb(0,0,0)" stroke-width="1" opacity="0.6862745098039216" d="M 413.5 250 L 414.5 252 L 413.5 250 Z " /><path fill="rgb(0,0,0)" stroke="rgb(0,0,0)" stroke-width="1" opacity="0.6862745098039216" d="M 54.5 251 L 53.5 253 L 54.5 251 Z " /><path fill="rgb(0,0,0)" stroke="rgb(0,0,0)" stroke-width="1" opacity="0.6862745098039216" d="M 416.5 255 L 417.5 257 L 416.5 255 Z " /><path fill="rgb(0,0,0)" stroke="rgb(0,0,0)" stroke-width="1" opacity="0.6862745098039216" d="M 48.5 261 L 47.5 263 L 48.5 261 Z " /><path fill="rgb(0,0,0)" stroke="rgb(0,0,0)" stroke-width="1" opacity="0.6862745098039216" d="M 420.5 262 L 421.5 264 L 420.5 262 Z " /><path fill="rgb(0,0,0)" stroke="rgb(0,0,0)" stroke-width="1" opacity="0.6862745098039216" d="M 26.5 317 L 27 319.5 L 26 319.5 L 26.5 317 Z " /><path fill="rgb(0,0,0)" stroke="rgb(0,0,0)" stroke-width="1" opacity="0.6862745098039216" d="M 25.5 322 L 26 324.5 L 25 324.5 L 25.5 322 Z " /><path fill="rgb(0,0,0)" stroke="rgb(0,0,0)" stroke-width="1" opacity="0.6862745098039216" d="M 24.5 327 L 25 329.5 L 24 329.5 L 24.5 327 Z " /><path fill="rgb(0,0,0)" stroke="rgb(0,0,0)" stroke-width="1" opacity="0.6862745098039216" d="M 23.5 333 L 24 336.5 L 23 336.5 L 23.5 333 Z " /><path fill="rgb(0,0,0)" stroke="rgb(0,0,0)" stroke-width="1" opacity="0.6862745098039216" d="M 22.5 341 L 23 345.5 L 22 345.5 L 22.5 341 Z " /><path fill="rgb(0,0,0)" stroke="rgb(0,0,0)" stroke-width="1" opacity="0.6862745098039216" d="M 21.5 353 L 22 376.5 L 21 376.5 L 21.5 353 Z " /><path fill="rgb(0,0,0)" stroke="rgb(0,0,0)" stroke-width="1" opacity="0.6862745098039216" d="M 22.5 384 L 23 388.5 L 22 388.5 L 22.5 384 Z " /><path fill="rgb(0,0,0)" stroke="rgb(0,0,0)" stroke-width="1" opacity="0.6862745098039216" d="M 23.5 393 L 24 396.5 L 23 396.5 L 23.5 393 Z " /><path fill="rgb(0,0,0)" stroke="rgb(0,0,0)" stroke-width="1" opacity="0.6862745098039216" d="M 24.5 400 L 25 402.5 L 24 402.5 L 24.5 400 Z " /><path fill="rgb(0,0,0)" stroke="rgb(0,0,0)" stroke-width="1" opacity="0.6862745098039216" d="M 26.5 410 L 27 412.5 L 26 412.5 L 26.5 410 Z " /><path fill="rgb(0,0,0)" stroke="rgb(0,0,0)" stroke-width="1" opacity="0.6862745098039216" d="M 420.5 468 L 419.5 470 L 420.5 468 Z " /><path fill="rgb(0,0,0)" stroke="rgb(0,0,0)" stroke-width="1" opacity="0.6862745098039216" d="M 48.5 469 L 49.5 471 L 48.5 469 Z " /><path fill="rgb(0,0,0)" stroke="rgb(0,0,0)" stroke-width="1" opacity="0.6862745098039216" d="M 51.5 474 L 52.5 476 L 51.5 474 Z " /><path fill="rgb(0,0,0)" stroke="rgb(0,0,0)" stroke-width="1" opacity="0.6862745098039216" d="M 557.5 479 Q 559.8 478.3 559 480.5 L 557.5 479 Z " /><path fill="rgb(0,0,0)" stroke="rgb(0,0,0)" stroke-width="1" opacity="0.6862745098039216" d="M 56.5 482 L 57.5 484 L 56.5 482 Z " /><path fill="rgb(0,0,0)" stroke="rgb(0,0,0)" stroke-width="1" opacity="0.6862745098039216" d="M 408.5 487 L 407.5 489 L 408.5 487 Z " /><path fill="rgb(0,0,0)" stroke="rgb(0,0,0)" stroke-width="1" opacity="0.6862745098039216" d="M 61.5 489 L 62.5 491 L 61.5 489 Z " /><path fill="rgb(0,0,0)" stroke="rgb(0,0,0)" stroke-width="1" opacity="0.6862745098039216" d="M 406.5 490 L 404.5 493 L 406.5 490 Z " /><path fill="rgb(0,0,0)" stroke="rgb(0,0,0)" stroke-width="1" opacity="0.6862745098039216" d="M 63.5 492 L 65.5 495 L 63.5 492 Z " /><path fill="rgb(0,0,0)" stroke="rgb(0,0,0)" stroke-width="1" opacity="0.6862745098039216" d="M 403.5 494 L 401.5 497 L 403.5 494 Z " /><path fill="rgb(0,0,0)" stroke="rgb(0,0,0)" stroke-width="1" opacity="0.6862745098039216" d="M 67.5 497 L 69.5 500 L 67.5 497 Z " /><path fill="rgb(0,0,0)" stroke="rgb(0,0,0)" stroke-width="1" opacity="0.6862745098039216" d="M 399.5 499 L 396.5 503 L 399.5 499 Z " /><path fill="rgb(0,0,0)" stroke="rgb(0,0,0)" stroke-width="1" opacity="0.6862745098039216" d="M 71.5 502 L 75.5 507 L 71.5 502 Z " /><path fill="rgb(0,0,0)" stroke="rgb(0,0,0)" stroke-width="1" opacity="0.6862745098039216" d="M 394.5 505 L 375.5 525 L 394.5 505 Z " /><path fill="rgb(0,0,0)" stroke="rgb(0,0,0)" stroke-width="1" opacity="0.6862745098039216" d="M 79.5 511 L 88.5 521 L 79.5 511 Z " /><path fill="rgb(0,0,0)" stroke="rgb(0,0,0)" stroke-width="1" opacity="0.6862745098039216" d="M 93.5 524 L 96.5 528 L 93.5 524 Z " /><path fill="rgb(0,0,0)" stroke="rgb(0,0,0)" stroke-width="1" opacity="0.6862745098039216" d="M 371.5 527 L 369.5 530 L 371.5 527 Z " /><path fill="rgb(0,0,0)" stroke="rgb(0,0,0)" stroke-width="1" opacity="0.6862745098039216" d="M 537.5 528 L 536.5 530 L 537.5 528 Z " /><path fill="rgb(0,0,0)" stroke="rgb(0,0,0)" stroke-width="1" opacity="0.6862745098039216" d="M 100.5 530 L 102.5 533 L 100.5 530 Z " /><path fill="rgb(0,0,0)" stroke="rgb(0,0,0)" stroke-width="1" opacity="0.6862745098039216" d="M 366.5 531 L 364.5 534 L 366.5 531 Z " /><path fill="rgb(0,0,0)" stroke="rgb(0,0,0)" stroke-width="1" opacity="0.6862745098039216" d="M 105.5 534 L 106.5 536 L 105.5 534 Z " /><path fill="rgb(0,0,0)" stroke="rgb(0,0,0)" stroke-width="1" opacity="0.6862745098039216" d="M 361.5 535 L 360.5 537 L 361.5 535 Z " /><path fill="rgb(0,0,0)" stroke="rgb(0,0,0)" stroke-width="1" opacity="0.6862745098039216" d="M 109.5 537 L 110.5 539 L 109.5 537 Z " /><path fill="rgb(0,0,0)" stroke="rgb(0,0,0)" stroke-width="1" opacity="0.6862745098039216" d="M 357.5 538 L 356.5 540 L 357.5 538 Z " /><path fill="rgb(0,0,0)" stroke="rgb(0,0,0)" stroke-width="1" opacity="0.6862745098039216" d="M 112.5 539 L 113.5 541 L 112.5 539 Z " /><path fill="rgb(0,0,0)" stroke="rgb(0,0,0)" stroke-width="1" opacity="0.6862745098039216" d="M 354.5 540 L 353.5 542 L 354.5 540 Z " /><path fill="rgb(0,0,0)" stroke="rgb(0,0,0)" stroke-width="1" opacity="0.6862745098039216" d="M 115.5 541 L 116.5 543 L 115.5 541 Z " /><path fill="rgb(0,0,0)" stroke="rgb(0,0,0)" stroke-width="1" opacity="0.6862745098039216" d="M 351.5 542 L 350.5 544 L 351.5 542 Z " /><path fill="rgb(0,0,0)" stroke="rgb(0,0,0)" stroke-width="1" opacity="0.6862745098039216" d="M 529.5 542 L 528.5 544 L 529.5 542 Z " /><path fill="rgb(0,0,0)" stroke="rgb(0,0,0)" stroke-width="1" opacity="0.6862745098039216" d="M 118.5 543 L 119.5 545 L 118.5 543 Z " /><path fill="rgb(0,0,0)" stroke="rgb(0,0,0)" stroke-width="1" opacity="0.6862745098039216" d="M 121.5 545 L 122.5 547 L 121.5 545 Z " /><path fill="rgb(0,0,0)" stroke="rgb(0,0,0)" stroke-width="1" opacity="0.6862745098039216" d="M 343.5 547 L 342.5 549 L 343.5 547 Z " /><path fill="rgb(0,0,0)" stroke="rgb(0,0,0)" stroke-width="1" opacity="0.6862745098039216" d="M 126.5 548 L 127.5 550 L 126.5 548 Z " /><path fill="rgb(0,0,0)" stroke="rgb(0,0,0)" stroke-width="1" opacity="0.6862745098039216" d="M 524.5 550 L 523.5 552 L 524.5 550 Z " /><path fill="rgb(0,0,0)" stroke="rgb(0,0,0)" stroke-width="1" opacity="0.6862745098039216" d="M 334.5 552 L 333.5 554 L 334.5 552 Z " /><path fill="rgb(0,0,0)" stroke="rgb(0,0,0)" stroke-width="1" opacity="0.6862745098039216" d="M 135.5 553 L 136.5 555 L 135.5 553 Z " /><path fill="rgb(0,0,0)" stroke="rgb(0,0,0)" stroke-width="1" opacity="0.6862745098039216" d="M 522.5 553 L 521.5 555 L 522.5 553 Z " /><path fill="rgb(0,0,0)" stroke="rgb(0,0,0)" stroke-width="1" opacity="0.6862745098039216" d="M 520.5 556 L 519.5 558 L 520.5 556 Z " /><path fill="rgb(0,0,0)" stroke="rgb(0,0,0)" stroke-width="1" opacity="0.6862745098039216" d="M 518.5 559 L 517.5 561 L 518.5 559 Z " /><path fill="rgb(0,0,0)" stroke="rgb(0,0,0)" stroke-width="1" opacity="0.6862745098039216" d="M 513.5 566 L 512.5 568 L 513.5 566 Z " /><path fill="rgb(0,0,0)" stroke="rgb(0,0,0)" stroke-width="1" opacity="0.6862745098039216" d="M 510.5 570 L 509.5 572 L 510.5 570 Z " /><path fill="rgb(0,0,0)" stroke="rgb(0,0,0)" stroke-width="1" opacity="0.6862745098039216" d="M 189.5 573 L 192 573.5 L 189.5 574 L 189.5 573 Z " /><path fill="rgb(0,0,0)" stroke="rgb(0,0,0)" stroke-width="1" opacity="0.6862745098039216" d="M 276.5 573 L 279 573.5 L 276.5 574 L 276.5 573 Z " /><path fill="rgb(0,0,0)" stroke="rgb(0,0,0)" stroke-width="1" opacity="0.6862745098039216" d="M 194.5 574 L 197 574.5 L 194.5 575 L 194.5 574 Z " /><path fill="rgb(0,0,0)" stroke="rgb(0,0,0)" stroke-width="1" opacity="0.6862745098039216" d="M 271.5 574 L 274 574.5 L 271.5 575 L 271.5 574 Z " /><path fill="rgb(0,0,0)" stroke="rgb(0,0,0)" stroke-width="1" opacity="0.6862745098039216" d="M 507.5 574 L 506.5 576 L 507.5 574 Z " /><path fill="rgb(0,0,0)" stroke="rgb(0,0,0)" stroke-width="1" opacity="0.6862745098039216" d="M 200.5 575 L 203 575.5 L 200.5 576 L 200.5 575 Z " /><path fill="rgb(0,0,0)" stroke="rgb(0,0,0)" stroke-width="1" opacity="0.6862745098039216" d="M 265.5 575 L 268 575.5 L 265.5 576 L 265.5 575 Z " /><path fill="rgb(0,0,0)" stroke="rgb(0,0,0)" stroke-width="1" opacity="0.6862745098039216" d="M 207.5 576 L 211 576.5 L 207.5 577 L 207.5 576 Z " /><path fill="rgb(0,0,0)" stroke="rgb(0,0,0)" stroke-width="1" opacity="0.6862745098039216" d="M 257.5 576 L 261 576.5 L 257.5 577 L 257.5 576 Z " /><path fill="rgb(0,0,0)" stroke="rgb(0,0,0)" stroke-width="1" opacity="0.6862745098039216" d="M 216.5 577 L 224 577.5 L 216.5 578 L 216.5 577 Z " /><path fill="rgb(0,0,0)" stroke="rgb(0,0,0)" stroke-width="1" opacity="0.6862745098039216" d="M 244.5 577 L 252 577.5 L 244.5 578 L 244.5 577 Z " /><path fill="rgb(0,0,0)" stroke="rgb(0,0,0)" stroke-width="1" opacity="0.6862745098039216" d="M 504.5 578 L 502.5 581 L 504.5 578 Z " /><path fill="rgb(0,0,0)" stroke="rgb(0,0,0)" stroke-width="1" opacity="0.6862745098039216" d="M 500.5 583 L 497.5 587 L 500.5 583 Z " /><path fill="rgb(0,0,0)" stroke="rgb(0,0,0)" stroke-width="1" opacity="0.6862745098039216" d="M 495.5 589 L 490.5 595 L 495.5 589 Z " /><path fill="rgb(0,0,0)" stroke="rgb(0,0,0)" stroke-width="1" opacity="0.6862745098039216" d="M 487.5 598 L 468.5 618 L 487.5 598 Z " /><path fill="rgb(0,0,0)" stroke="rgb(0,0,0)" stroke-width="1" opacity="0.6862745098039216" d="M 463.5 621 L 459.5 626 L 463.5 621 Z " /><path fill="rgb(0,0,0)" stroke="rgb(0,0,0)" stroke-width="1" opacity="0.6862745098039216" d="M 455.5 628 L 453.5 631 L 455.5 628 Z " /><path fill="rgb(0,0,0)" stroke="rgb(0,0,0)" stroke-width="1" opacity="0.6862745098039216" d="M 450.5 632 L 448.5 635 L 450.5 632 Z " /><path fill="rgb(0,0,0)" stroke="rgb(0,0,0)" stroke-width="1" opacity="0.6862745098039216" d="M 445.5 636 L 443.5 639 L 445.5 636 Z " /><path fill="rgb(0,0,0)" stroke="rgb(0,0,0)" stroke-width="1" opacity="0.6862745098039216" d="M 440.5 640 L 439.5 642 L 440.5 640 Z " /><path fill="rgb(0,0,0)" stroke="rgb(0,0,0)" stroke-width="1" opacity="0.6862745098039216" d="M 437.5 642 L 436.5 644 L 437.5 642 Z " /><path fill="rgb(0,0,0)" stroke="rgb(0,0,0)" stroke-width="1" opacity="0.6862745098039216" d="M 433.5 645 L 432.5 647 L 433.5 645 Z " /><path fill="rgb(0,0,0)" stroke="rgb(0,0,0)" stroke-width="1" opacity="0.6862745098039216" d="M 430.5 647 L 429.5 649 L 430.5 647 Z " /><path fill="rgb(0,0,0)" stroke="rgb(0,0,0)" stroke-width="1" opacity="0.6862745098039216" d="M 418.5 655 L 417.5 657 L 418.5 655 Z " /><path fill="rgb(0,0,0)" stroke="rgb(0,0,0)" stroke-width="1" opacity="0.6862745098039216" d="M 403.5 664 L 402.5 666 L 403.5 664 Z " /><path fill="rgb(0,0,0)" stroke="rgb(0,0,0)" stroke-width="1" opacity="0.6862745098039216" d="M 290.5 704 L 293 704.5 L 290.5 705 L 290.5 704 Z " /><path fill="rgb(0,0,0)" stroke="rgb(0,0,0)" stroke-width="1" opacity="0.6862745098039216" d="M 283.5 705 L 287 705.5 L 283.5 706 L 283.5 705 Z " /><path fill="rgb(0,0,0)" stroke="rgb(0,0,0)" stroke-width="1" opacity="0.6862745098039216" d="M 276.5 706 L 280 706.5 L 276.5 707 L 276.5 706 Z " /><path fill="rgb(0,0,0)" stroke="rgb(0,0,0)" stroke-width="1" opacity="0.6862745098039216" d="M 266.5 707 L 271 707.5 L 266.5 708 L 266.5 707 Z " /><path fill="rgb(0,0,0)" stroke="rgb(0,0,0)" stroke-width="1" opacity="0.6862745098039216" d="M 252.5 708 L 260 708.5 L 252.5 709 L 252.5 708 Z " /><path fill="rgb(0,0,0)" stroke="rgb(0,0,0)" stroke-width="1" opacity="1" d="M 235 21 L 273.5 23 L 274.5 24 L 281.5 24 L 304.5 28 L 335.5 36 L 368.5 48 Q 439.5 79 488 132.5 Q 514.3 160.7 534 195.5 L 550 227.5 L 558 247.5 L 558 251 L 435.5 294 Q 416.1 240.9 377.5 207 Q 348.6 180.4 308.5 165 L 272.5 155 L 260.5 154 L 259.5 153 L 249.5 153 L 248.5 152 L 235 152 L 235 21 Z " /><path fill="rgb(0,0,0)" stroke="rgb(0,0,0)" stroke-width="1" opacity="1" d="M 231.5 152 L 234 152.5 L 234 578 L 211.5 577 L 210.5 576 L 203.5 576 L 187.5 573 Q 162.4 567.1 141.5 557 Q 103.1 537.9 76 507.5 Q 50.2 479.3 35 440.5 L 29 422.5 L 23 392.5 L 23 384.5 L 22 383.5 L 22 346.5 L 23 345.5 L 24 330.5 L 28 311.5 L 40 277.5 Q 58.7 237.2 89.5 209 Q 117.3 182.8 155.5 167 Q 175.2 159.2 198.5 155 L 212.5 154 L 213.5 153 L 230.5 153 L 231.5 152 Z " /><path fill="rgb(0,0,0)" stroke="rgb(0,0,0)" stroke-width="1" opacity="1" d="M 435.5 436 L 554.5 478 L 558 480.5 L 547 509.5 L 527 546.5 Q 500.5 588.5 464.5 621 Q 419 662.5 356.5 687 L 329.5 696 L 295.5 704 L 276.5 706 L 275.5 707 L 266.5 707 L 265.5 708 L 235 709 L 235 578.5 L 235.5 578 L 251.5 578 L 252.5 577 L 273.5 575 L 297.5 569 L 333.5 554 Q 369.2 534.7 395 505.5 Q 421 476.5 435.5 436 Z " /></svg>